<?xml version="1.0" encoding="UTF-8"?>
<svg xmlns="http://www.w3.org/2000/svg" xmlns:xlink="http://www.w3.org/1999/xlink" width="2000" height="2000" viewBox="0 0 2000 2000">
<defs>
<radialGradient id="radial-pattern-0" gradientUnits="userSpaceOnUse" cx="0" cy="0" fx="0" fy="0" r="1000" gradientTransform="matrix(1, 0, 0, 1, 1000, 1000)">
<stop offset="0" stop-color="rgb(9.335327%, 7.797241%, 7.554626%)" stop-opacity="1"/>
<stop offset="1" stop-color="rgb(9.335327%, 7.797241%, 7.554626%)" stop-opacity="1"/>
</radialGradient>
</defs>
<rect x="-200" y="-200" width="2400" height="2400" fill="url(#radial-pattern-0)"/>
<path fill-rule="nonzero" fill="rgb(100%, 100%, 100%)" fill-opacity="1" d="M 586.160156 1255.96875 L 687.109375 1255.96875 L 725.683594 1189.460938 L 804.800781 1052.28125 L 754.273438 964.71875 L 586.160156 1255.96875 "/>
<path fill-rule="nonzero" fill="rgb(100%, 100%, 100%)" fill-opacity="1" d="M 827.433594 837.988281 L 878.164062 925.128906 L 878.769531 924.089844 L 970.101562 1082.339844 L 1019.75 1168.429688 L 872.691406 1168.429688 L 822.214844 1255.96875 L 1171.398438 1255.96875 L 878.777344 749.03125 L 827.433594 837.988281 "/>
<path fill-rule="nonzero" fill="rgb(100%, 100%, 100%)" fill-opacity="1" d="M 1310.410156 1064.910156 C 1322.738281 1060.609375 1334.25 1055.230469 1344.621094 1048.949219 C 1359.191406 1040.109375 1371.921875 1029.199219 1382.460938 1016.511719 C 1392.96875 1003.839844 1401.351562 989.039062 1407.339844 972.519531 C 1413.320312 956.011719 1416.351562 937.011719 1416.351562 916.070312 C 1416.351562 891.769531 1411.988281 869.398438 1403.390625 849.558594 C 1394.761719 829.679688 1382.25 812.671875 1366.191406 799.011719 C 1350.191406 785.398438 1330.359375 774.75 1307.261719 767.359375 C 1284.25 760.011719 1258.199219 756.289062 1229.828125 756.289062 L 963.929688 756.289062 L 1013.148438 841.558594 L 1222.480469 841.558594 C 1253.96875 841.558594 1278.640625 848.320312 1295.789062 861.648438 C 1312.910156 874.949219 1321.230469 894.25 1321.230469 920.640625 C 1321.230469 945.179688 1312.648438 964.148438 1295.011719 978.640625 C 1285.570312 986.398438 1273.988281 992.171875 1260.578125 995.800781 C 1255.210938 997.261719 1250.160156 998.300781 1245.121094 998.988281 C 1238.179688 999.941406 1230.808594 1000.429688 1223.191406 1000.429688 L 1104.859375 1000.429688 L 1153.269531 1084.289062 L 1213.671875 1084.289062 L 1283.101562 1204.679688 L 1312.851562 1255.96875 L 1413.839844 1255.96875 L 1304.699219 1066.898438 L 1310.410156 1064.910156 "/>
</svg>
